<svg xmlns="http://www.w3.org/2000/svg" viewBox="0 0 1536 1024" role="img" aria-label="What recruiters look for cover">
  <defs>
    <linearGradient id="bg" x1="0" y1="0" x2="1" y2="1">
      <stop offset="0" stop-color="#2F6657"/>
      <stop offset="1" stop-color="#12241E"/>
    </linearGradient>
  </defs>
  <rect width="1536" height="1024" fill="url(#bg)"/>
  <circle cx="1180" cy="150" r="320" fill="#ffffff" opacity="0.05"/>
  <circle cx="260" cy="980" r="400" fill="#ffffff" opacity="0.045"/>
  <g>
    <rect x="668" y="302" width="200" height="260" rx="14" fill="#ffffff" opacity="0.16"/>
    <rect x="700" y="342" width="136" height="10" rx="5" fill="#ffffff" opacity="0.55"/>
    <rect x="700" y="368" width="136" height="10" rx="5" fill="#ffffff" opacity="0.35"/>
    <rect x="700" y="394" width="100" height="10" rx="5" fill="#ffffff" opacity="0.35"/>
    <rect x="700" y="446" width="136" height="10" rx="5" fill="#ffffff" opacity="0.55"/>
    <rect x="700" y="472" width="136" height="10" rx="5" fill="#ffffff" opacity="0.35"/>
    <rect x="700" y="498" width="100" height="10" rx="5" fill="#ffffff" opacity="0.35"/>
  </g>
  <circle cx="838" cy="332" r="34" fill="#F5F6F1"/>
  <g stroke="#1C2430" fill="none">
    <circle cx="838" cy="332" r="17" stroke-width="5"/>
    <circle cx="838" cy="332" r="8" stroke-width="4"/>
    <circle cx="838" cy="332" r="2.5" fill="#1C2430" stroke="none"/>
  </g>
  <text x="768" y="655" text-anchor="middle" font-family="Arial, Helvetica, sans-serif" font-size="40" font-weight="700" letter-spacing="10" fill="#ffffff" opacity="0.9">CAREER ADVICE</text>
</svg>
